<svg width="1536" height="1536" viewBox="0 0 1536 1536" fill="none" xmlns="http://www.w3.org/2000/svg">
<g clip-path="url(#clip0_629_1168)">
<path d="M237 1286H468V592H237V1286ZM483 378C482.333 343.333 470.333 314.667 447 292C423.667 269.333 392.667 258 354 258C315.333 258 283.833 269.333 259.5 292C235.167 314.667 223 343.333 223 378C223 412 234.833 440.5 258.5 463.5C282.167 486.5 313 498 351 498H352C391.333 498 423 486.5 447 463.5C471 440.5 483 412 483 378ZM1068 1286H1299V888C1299 785.333 1274.67 707.667 1226 655C1177.33 602.333 1113 576 1033 576C942.333 576 872.667 615 824 693H826V592H595C597 636 597 867.333 595 1286H826V898C826 872.667 828.333 854 833 842C843 818.667 858 798.833 878 782.5C898 766.167 922.667 758 952 758C1029.33 758 1068 810.333 1068 915V1286ZM1536 288V1248C1536 1327.33 1507.83 1395.17 1451.5 1451.5C1395.17 1507.83 1327.33 1536 1248 1536H288C208.667 1536 140.833 1507.83 84.5 1451.5C28.1667 1395.17 0 1327.33 0 1248V288C0 208.667 28.1667 140.833 84.5 84.5C140.833 28.1667 208.667 0 288 0H1248C1327.33 0 1395.17 28.1667 1451.5 84.5C1507.83 140.833 1536 208.667 1536 288Z" fill="#111111"/>
</g>
<defs>
<clipPath id="clip0_629_1168">
<rect width="1536" height="1536" fill="white"/>
</clipPath>
</defs>
</svg>
