<svg width="39" height="47" viewBox="0 0 39 47" fill="none" xmlns="http://www.w3.org/2000/svg">
<path fill-rule="evenodd" clip-rule="evenodd" d="M28.5783 0.0238611C26.6016 0.214361 24.2809 1.3593 22.6527 2.94736C20.9108 4.64628 19.7337 7.00795 19.5273 9.21795C19.4956 9.55733 19.5102 10.3649 19.5521 10.5905L19.5804 10.743L19.7766 10.7708C20.0628 10.8115 20.7674 10.787 21.1294 10.7239C22.5105 10.4831 23.9489 9.80336 25.2344 8.78394C25.6231 8.47571 26.3418 7.74832 26.6956 7.30502C27.2106 6.65981 27.6479 5.97031 28.0009 5.2468C28.5151 4.19306 28.8197 3.19622 28.9863 2.02226C29.0344 1.68297 29.0566 0.625799 29.0213 0.35281C28.9726 -0.0241183 28.9818 -0.00209532 28.8737 0.00142652C28.8217 0.00311883 28.6888 0.013227 28.5783 0.0238611ZM27.6928 11.3344C27.1606 11.3658 26.4387 11.4822 25.8061 11.6385C24.9733 11.8443 24.3484 12.0567 22.8789 12.6334C21.6866 13.1013 21.3168 13.2316 20.8371 13.353C20.2286 13.5071 19.6948 13.5032 19.0368 13.3401C18.5709 13.2246 18.2305 13.1035 17.006 12.618C15.8276 12.1508 15.398 11.9952 14.8404 11.8339C13.4826 11.4412 12.3991 11.3539 11.0327 11.5269C9.55936 11.7134 8.13386 12.2017 6.84761 12.9604C4.34694 14.4353 2.47874 16.8175 1.47284 19.8138C0.729894 22.0269 0.46978 24.5356 0.69742 27.2926C0.905872 29.817 1.52299 32.4966 2.48027 35.0338C3.09474 36.6624 3.92574 38.378 4.75106 39.722C5.50563 40.9507 7.02647 43.0136 7.97133 44.09C9.72884 46.0922 11.3589 46.945 13.1802 46.815C14.1392 46.7465 14.7472 46.5756 16.2234 45.9597C17.1756 45.5623 17.5734 45.4137 18.0659 45.2713C19.5552 44.8406 21.238 44.8028 22.6959 45.1671C23.3061 45.3196 23.6573 45.4466 24.697 45.8908C25.9866 46.4417 26.4805 46.5974 27.2926 46.7089C27.6532 46.7584 28.4262 46.7776 28.7334 46.7447C30.1526 46.5927 31.4476 45.8881 32.736 44.5669C33.5223 43.7607 34.3177 42.7472 35.4614 41.0941C36.7222 39.2717 37.845 37.0471 38.543 34.9881C38.7552 34.3623 38.7565 34.3564 38.6885 34.3354C38.4583 34.2642 37.5774 33.7807 37.1149 33.4717C34.4719 31.7062 32.8763 29.1609 32.5314 26.1606C32.2446 23.665 32.795 21.2914 34.1304 19.2656C34.9045 18.0912 36.0231 16.9715 37.2235 16.1691C37.3776 16.0662 37.5037 15.9708 37.5037 15.9573C37.5037 15.9185 37.1897 15.4984 36.9172 15.1723C34.99 12.867 32.2663 11.5423 29.0421 11.3422C28.6949 11.3206 27.9948 11.3166 27.6928 11.3344Z" fill="#2D2D2D"/>
</svg>
