<svg width="124" height="125" viewBox="0 0 124 125" fill="none" xmlns="http://www.w3.org/2000/svg">
<path d="M0 62.828C0 28.5863 27.7584 0.827881 62.0001 0.827881C96.2418 0.827881 124 28.5863 124 62.828V124.828H0V62.828Z" fill="#F3AFA8"/>
<path d="M32.1685 98.8838L38.7668 98.8838L38.7668 92.0557L32.1685 92.0557L32.1685 98.8838ZM87.1019 42.8731C87.1019 42.4112 86.7401 42.0368 86.2938 42.0368L79.0207 42.0368C78.5744 42.0368 78.2126 42.4112 78.2126 42.8731C78.2126 43.335 78.5744 43.7094 79.0207 43.7094L85.4857 43.7094L85.4857 50.3995C85.4857 50.8614 85.8475 51.2358 86.2938 51.2358C86.7401 51.2358 87.1019 50.8614 87.1019 50.3995L87.1019 42.8731ZM36.0391 96.0611L86.8652 43.4644L85.7223 42.2818L34.8962 94.8784L36.0391 96.0611Z" fill="#2D2D2D"/>
</svg>
